<?xml version="1.0" standalone="no"?><!DOCTYPE svg PUBLIC "-//W3C//DTD SVG 1.1//EN" "http://www.w3.org/Graphics/SVG/1.1/DTD/svg11.dtd"><svg t="1781755927797" class="icon" viewBox="0 0 1228 1024" version="1.1" xmlns="http://www.w3.org/2000/svg" p-id="3988" xmlns:xlink="http://www.w3.org/1999/xlink" width="239.84375" height="200"><path d="M146.768232 246.98861l390.959748 180.913879 81.854559-300.502809L146.768232 246.98861zM768.303458 297.969592c-41.059218 27.443179-83.121167 58.422306-128.930165 98.214916-17.67974 15.4104-33.617894 30.556924-47.920013 45.386795l-16.254806-4.169252 80.218523-295.964129 112.886461 156.53167zM790.205226 763.764779l-158.326032 221.761995-25.543267-186.613616c67.710766-4.010926 128.771839-16.254806 183.869299-35.148379zM468.645055 721.069525l-100.484255 191.7856c-115.155801-37.734371-229.889399-75.099315-231.472659-74.729887-3.113745 0.738855 396.659486-352.750399 396.659486-352.750399l3.008194 22.060094c-88.345926 123.969283-67.710766 213.634593-67.710766 213.634592zM602.430552 989.959903s-81.643457-26.915425-176.586301-58.105654c47.022832-36.151111 102.225841-79.901871 151.88744-122.386022l24.698861 180.491676zM591.400505 1014.289337l-276.91223 6.91357-172.5226-155.898366c1.899912 0.738855 106.289543 35.35948 213.89847 71.035613l-41.37587 78.951914s35.834459-25.912694 86.076586-64.174818c100.009277 33.142916 190.835644 63.172087 190.835644 63.172087zM867.098902 731.466268l-78.107509 168.986652-139.115807 89.506983 168.617224-236.591867c16.782559-6.649693 32.98459-13.985466 48.606092-21.901768zM99.692625 301.980518L2.849869 618.421481l91.248569 174.528063 5.594187-490.969026zM118.638973 273.85126l0.791631 529.23115L510.337577 457.351131 118.638973 273.85126z" fill="#5A67AF" p-id="3989"></path><path d="M1225.179611 8.49683s-79.321342 136.688141-279.234345 266.462712c-44.014637 58.26398-49.925475 128.244086-49.925475 128.244086l-9.552338-88.1876s-154.367881 80.060197-173.050353 90.720817c-16.940885 30.6097 3.588723 10.502293-32.087409 111.619852-3.008195-20.318507-7.7052-56.627944-6.491367-80.535175-18.260269 6.596918-178.380663 180.597227-163.920219 281.873113 40.637015-36.626089 97.528836-128.296861 230.628254-183.183219 133.152193-54.886358 220.548163-68.555172 411.383806-377.502036 0 0-84.44055 263.032315-385.787764 392.859661-230.786579 90.034737-365.09983 361.933309-365.09983 361.933309s80.165748-70.982838 163.392465-158.273257c33.301242-0.105551 71.246714 0.686079 164.606298-19.157449-23.273927-14.935422-38.051023-28.762562-38.051023-28.762563s190.149565 66.602484 393.176313-268.995928l-70.982838-9.763439 101.170334-45.386796s118.638973-277.809411 109.825491-373.966088z" fill="#5A67AF" p-id="3990"></path></svg>